<svg width="14" height="14" viewBox="0 0 14 14" fill="none" xmlns="http://www.w3.org/2000/svg">
<path d="M11.6667 4.08334H6.41675" stroke="black" stroke-linecap="round" stroke-linejoin="round"/>
<path d="M8.16675 9.91666H2.91675" stroke="black" stroke-linecap="round" stroke-linejoin="round"/>
<path d="M9.91675 11.6667C10.8832 11.6667 11.6667 10.8832 11.6667 9.91666C11.6667 8.95017 10.8832 8.16666 9.91675 8.16666C8.95025 8.16666 8.16675 8.95017 8.16675 9.91666C8.16675 10.8832 8.95025 11.6667 9.91675 11.6667Z" stroke="black" stroke-linecap="round" stroke-linejoin="round"/>
<path d="M4.08325 5.83334C5.04975 5.83334 5.83325 5.04983 5.83325 4.08334C5.83325 3.11684 5.04975 2.33334 4.08325 2.33334C3.11675 2.33334 2.33325 3.11684 2.33325 4.08334C2.33325 5.04983 3.11675 5.83334 4.08325 5.83334Z" stroke="black" stroke-linecap="round" stroke-linejoin="round"/>
</svg>
