<svg width="14" height="14" viewBox="0 0 14 14" fill="none" xmlns="http://www.w3.org/2000/svg">
<path d="M7.2756 0.276165C7.22366 0.27702 7.17298 0.292306 7.12923 0.320314C7.08548 0.348322 7.05038 0.387947 7.02786 0.434758L3.12755 6.56413C3.12112 6.57361 3.11528 6.58347 3.11005 6.59366C3.10987 6.59385 3.10969 6.59403 3.1095 6.59421C3.10545 6.60241 3.1018 6.61081 3.09857 6.61937C3.09185 6.63688 3.0869 6.65501 3.0838 6.67351C3.08067 6.69193 3.07938 6.71061 3.07997 6.72929C3.07997 6.72947 3.07997 6.72965 3.07997 6.72984C3.08025 6.73898 3.08098 6.74811 3.08216 6.75718C3.08251 6.75901 3.08287 6.76083 3.08325 6.76265C3.0855 6.77655 3.08879 6.79026 3.0931 6.80366C3.09379 6.80623 3.09452 6.80878 3.09529 6.81132C3.09529 6.8115 3.09529 6.81169 3.09529 6.81187C3.09832 6.8206 3.10179 6.82918 3.10568 6.83757C3.10568 6.83775 3.10568 6.83794 3.10568 6.83812C3.10966 6.84635 3.11404 6.85438 3.1188 6.86218C3.1188 6.86236 3.1188 6.86254 3.1188 6.86273C3.12352 6.87063 3.12863 6.8783 3.13411 6.8857C3.13677 6.88904 3.13951 6.89232 3.14232 6.89554C3.14549 6.89964 3.14877 6.90365 3.15216 6.90757C3.15821 6.91444 3.1646 6.92101 3.1713 6.92726C3.17148 6.92744 3.17167 6.92762 3.17185 6.9278C3.1855 6.94017 3.20034 6.95116 3.21614 6.96062C3.21633 6.9608 3.21651 6.96098 3.21669 6.96116C3.21814 6.96191 3.2196 6.96264 3.22107 6.96335C3.22125 6.96353 3.22143 6.96372 3.22161 6.9639L7.10607 9.18366C7.15525 9.22249 7.21603 9.2437 7.27869 9.2439C7.34135 9.24409 7.40227 9.22327 7.45169 9.18476L11.3329 6.96663C11.3349 6.96556 11.3369 6.96447 11.3389 6.96335C11.345 6.95975 11.3511 6.95592 11.3569 6.95187C11.3588 6.95061 11.3606 6.94934 11.3624 6.94804C11.3637 6.94696 11.365 6.94586 11.3662 6.94476C11.372 6.94078 11.3777 6.93658 11.3832 6.93218C11.3835 6.93182 11.3839 6.93145 11.3843 6.93109C11.3854 6.93018 11.3865 6.92927 11.3876 6.92835C11.3934 6.92295 11.3991 6.91729 11.4045 6.9114C11.4109 6.90459 11.4169 6.89748 11.4226 6.89007C11.428 6.88285 11.4331 6.87537 11.4379 6.86765C11.438 6.86747 11.4382 6.86728 11.4384 6.8671C11.4386 6.86656 11.4388 6.86601 11.439 6.86546C11.4437 6.85819 11.4481 6.85071 11.4521 6.84304C11.4521 6.84286 11.4521 6.84267 11.4521 6.84249C11.4553 6.83604 11.4582 6.82948 11.4608 6.8228C11.4616 6.82081 11.4623 6.8188 11.463 6.81679C11.4638 6.81461 11.4645 6.81242 11.4652 6.81023C11.4673 6.80391 11.4691 6.79753 11.4707 6.79109C11.4709 6.79072 11.471 6.79036 11.4712 6.78999C11.4714 6.78945 11.4716 6.7889 11.4718 6.78835C11.4738 6.77987 11.4755 6.77129 11.4767 6.76265C11.4779 6.75558 11.4788 6.74846 11.4794 6.74132C11.4794 6.74059 11.4794 6.73986 11.4794 6.73913C11.48 6.73058 11.4802 6.722 11.48 6.71343C11.4798 6.70795 11.4794 6.70248 11.4789 6.69702C11.4785 6.69117 11.478 6.68534 11.4772 6.67952C11.4772 6.67934 11.4772 6.67916 11.4772 6.67898C11.4771 6.67806 11.4769 6.67715 11.4767 6.67624C11.4754 6.66834 11.4737 6.66049 11.4718 6.65273C11.4718 6.65236 11.4718 6.652 11.4718 6.65163C11.47 6.64463 11.468 6.6377 11.4658 6.63085C11.465 6.62884 11.4643 6.62683 11.4636 6.62484C11.4627 6.62264 11.4618 6.62045 11.4608 6.61827C11.4585 6.61199 11.4559 6.60578 11.4532 6.59968C11.453 6.5995 11.4528 6.59932 11.4526 6.59913C11.4524 6.59859 11.4523 6.59804 11.4521 6.59749C11.4481 6.58963 11.4437 6.58197 11.439 6.57452C11.4384 6.57361 11.4379 6.5727 11.4373 6.57179C11.437 6.57106 11.4366 6.57033 11.4362 6.5696L11.4275 6.55648L7.53099 0.433118C7.50767 0.385444 7.47128 0.345379 7.42606 0.317591C7.38085 0.289802 7.32867 0.275436 7.2756 0.276165ZM6.99997 1.52195V4.85515L4.08349 6.10476L6.99997 1.52195ZM7.55997 1.52195L10.4765 6.10476L7.55997 4.85515V1.52195ZM6.99997 5.46437V8.4771L3.98779 6.75609L6.99997 5.46437ZM7.55997 5.46437L10.5722 6.75609L7.55997 8.4771V5.46437ZM11.2022 7.83945C11.1527 7.83916 11.104 7.85199 11.0611 7.87663L7.27997 10.0373L3.49888 7.87663C3.45817 7.85345 3.41229 7.84085 3.36544 7.83999C3.31317 7.83897 3.26165 7.85261 3.21673 7.87935C3.1718 7.9061 3.13526 7.94489 3.11124 7.99133C3.08723 8.03777 3.07669 8.09001 3.08083 8.14213C3.08497 8.19425 3.10361 8.24417 3.13466 8.28624L7.03607 13.5811C7.06044 13.6242 7.09582 13.6601 7.13859 13.6851C7.18137 13.7101 7.23 13.7233 7.27954 13.7233C7.32908 13.7234 7.37774 13.7103 7.42057 13.6854C7.4634 13.6605 7.49886 13.6247 7.52333 13.5816L11.4253 8.28624C11.4561 8.2447 11.4748 8.19543 11.4793 8.14391C11.4838 8.09239 11.474 8.04063 11.4509 7.99436C11.4278 7.94809 11.3923 7.90912 11.3484 7.88178C11.3045 7.85443 11.2539 7.83978 11.2022 7.83945ZM4.37169 9.0207L6.99997 10.523V12.588L4.37169 9.0207ZM10.1883 9.0207L7.55997 12.588V10.523L10.1883 9.0207Z" fill="#A8A8A8"/>
</svg>
