<svg width="776" height="275" viewBox="0 0 776 275" fill="none" xmlns="http://www.w3.org/2000/svg">
<path d="M693.313 260.683C696.737 266.879 691.251 273.167 684.173 273.167C642.421 273.167 583.153 273.167 583.153 273.167H527.991C522.801 273.167 517.873 269.789 518.003 264.601C518.411 248.273 535.119 236.451 543.445 237.757C521.985 223.351 528.467 186.907 551.073 175.89C580.035 159.535 614.903 178.889 615.675 213.611C615.675 216.153 615.623 220.603 614.903 223.081C628.801 192.299 686.535 207.137 671.851 248.067C683.449 248.067 689.831 254.387 693.313 260.683Z" fill="#32B06B"/>
<path d="M63.0553 71.6872L83.1637 67.3454C92.1007 65.4158 95.5975 54.535 89.4579 47.7602C83.3181 40.9852 72.1467 43.3974 69.3493 52.102L63.0553 71.6872Z" fill="#F2EBE0"/>
<path d="M63.0414 71.685L49.227 56.4414C43.0874 49.6666 46.5841 38.7858 55.5212 36.8562C64.4583 34.9264 72.1329 43.395 69.3355 52.0996L63.0414 71.685Z" fill="#F2EBE0"/>
<path d="M97.4642 107.371C100.999 106.607 102.382 102.304 99.9534 99.6246L93.2122 92.186L87.6514 109.489L97.4642 107.371Z" fill="#313131"/>
<path d="M44.7787 56.0874L73.4693 65.3077C88.5238 70.1458 96.8059 86.2719 91.9678 101.326C87.1298 116.381 71.0037 124.663 55.9492 119.825L27.2586 110.605C12.2041 105.767 3.922 89.6404 8.76005 74.5859C13.5981 59.5314 29.7242 51.2494 44.7787 56.0874Z" fill="#FFCF7B"/>
<path d="M25.8058 99.1341C16.2588 96.066 11.0066 85.8394 14.0747 76.2924C17.1428 66.7453 27.3694 61.4931 36.9164 64.5612C46.4635 67.6294 51.7157 77.856 48.6476 87.403C45.5794 96.95 35.3528 102.202 25.8058 99.1341Z" fill="#FFE5B6"/>
<path d="M33.6301 87.4143C31.7198 86.8004 30.8015 84.3415 31.579 81.9223C32.3565 79.5031 34.5353 78.0395 36.4455 78.6534C38.3557 79.2673 39.274 81.7262 38.4966 84.1454C37.7191 86.5646 35.5403 88.0282 33.6301 87.4143Z" fill="#313131"/>
<path d="M19.3729 82.8343C17.4626 82.2204 16.5443 79.7616 17.3218 77.3423C18.0993 74.9231 20.2781 73.4596 22.1883 74.0735C24.0985 74.6873 25.0168 77.1462 24.2394 79.5654C23.4619 81.9847 21.2831 83.4482 19.3729 82.8343Z" fill="#313131"/>
<path d="M78.3809 117.719L90.4725 80.0938C88.5747 76.1744 85.7903 72.689 82.2855 69.962L65.8241 121.184C70.2615 121.01 74.5551 119.799 78.3809 117.719Z" fill="#FF5310"/>
<path d="M48.3562 117.388L55.9404 119.826C56.8816 120.128 57.8268 120.379 58.7732 120.581L76.203 66.345C75.3164 65.9574 74.4018 65.6108 73.4606 65.3084L65.8764 62.871L48.3562 117.388Z" fill="#FF5310"/>
<path fill-rule="evenodd" clip-rule="evenodd" d="M90.4815 80.1006C93.5735 86.4912 94.3087 94.0352 91.9651 101.328C89.6215 108.62 84.6291 114.323 78.3929 117.716L90.4815 80.1006Z" fill="#FFCF7B"/>
<path d="M646.61 165.714C634.778 147.738 616.896 125.034 592.966 123.489C460.328 6.96648 287.048 180.79 115.913 110.273M591.948 125.053C601.67 130.291 603.178 142.472 598.202 151.422C593.7 160.072 580.15 161.9 573.216 154.306C567.562 148.484 567.07 140.139 570.932 132.922C574.38 125.856 584.374 121.379 591.948 125.053Z" stroke="#F2EBE0" stroke-width="12" stroke-linecap="round" stroke-linejoin="round"/>
<path d="M662.47 75.7894C661.57 73.8794 658.854 73.8794 657.954 75.7894L656.008 79.9286C654.804 83.042 650.784 84.3816 648.042 85.7004C646.132 86.6004 646.132 89.3162 648.042 90.2164L652.182 92.163C653.862 92.9532 655.218 94.3084 656.008 95.9882L657.954 100.127C658.854 102.037 661.57 102.037 662.47 100.127L664.416 95.9882C665.62 92.8746 669.638 91.535 672.38 90.2164C674.292 89.3162 674.292 86.6004 672.38 85.7004L668.242 83.7538C665.128 82.5502 663.788 78.5314 662.47 75.7894Z" fill="#F2EBE0"/>
<path d="M590.366 41.4256C588.968 38.4564 584.746 38.4564 583.346 41.4256L580.32 47.8602C578.45 52.7004 572.202 54.783 567.938 56.833C564.97 58.2322 564.97 62.4542 567.938 63.8534L574.374 66.8796C576.984 68.1078 579.092 70.2148 580.32 72.826L583.346 79.2608C584.746 82.23 588.968 82.23 590.366 79.2608L593.392 72.826C595.264 67.9858 601.512 65.9034 605.774 63.8534C608.744 62.4542 608.744 58.2322 605.774 56.833L599.34 53.8068C594.5 51.9358 592.416 45.6882 590.366 41.4256Z" fill="#F2EBE0"/>
<path d="M88.8466 153.726C88.2268 152.41 86.3568 152.41 85.737 153.726L84.3968 156.576C83.568 158.72 80.8008 159.642 78.9128 160.55C77.5978 161.17 77.5978 163.04 78.9128 163.66L81.763 165C82.9194 165.544 83.8526 166.476 84.3968 167.634L85.737 170.484C86.3568 171.798 88.2268 171.798 88.8466 170.484L90.1868 167.634C91.0156 165.49 93.7828 164.568 95.6708 163.66C96.9858 163.04 96.9858 161.17 95.6708 160.55L92.8206 159.21C90.6768 158.38 89.7544 155.614 88.8466 153.726Z" fill="#F2EBE0"/>
<path d="M365.424 51.8159C364.806 50.5007 362.936 50.5007 362.316 51.8159L360.976 54.6659C360.146 56.8097 357.38 57.7321 355.492 58.6401C354.176 59.2599 354.176 61.1297 355.492 61.7495L358.342 63.0899C359.498 63.6339 360.432 64.5671 360.976 65.7237L362.316 68.5737C362.936 69.8889 364.806 69.8889 365.424 68.5737L366.766 65.7237C367.594 63.5799 370.362 62.6575 372.25 61.7495C373.564 61.1297 373.564 59.2599 372.25 58.6401L369.4 57.2997C367.256 56.4711 366.332 53.7039 365.424 51.8159Z" fill="#F2EBE0"/>
<path d="M643.976 1.31742C645.538 -0.764376 648.782 -0.296775 649.692 2.14102L652.444 9.53862C652.59 9.93062 652.902 10.2386 653.302 10.3704L660.772 12.9174C663.234 13.7578 663.794 16.9882 661.752 18.6096L655.57 23.5122C655.242 23.7752 655.05 24.1658 655.044 24.5896L654.93 32.485C654.892 35.0896 651.988 36.6202 649.822 35.175L643.248 30.808C642.896 30.5754 642.46 30.5124 642.064 30.6376L634.526 32.9706C632.04 33.7388 629.686 31.4502 630.384 28.9474L632.506 21.3416C632.616 20.9396 632.544 20.5042 632.304 20.1594L627.758 13.7102C626.256 11.5852 627.706 8.63762 630.306 8.52662L638.19 8.19262C638.612 8.17242 638.998 7.97183 639.248 7.63703L643.976 1.31742Z" fill="#FFCF7B"/>
<path d="M406.224 17.132C407.014 15.1626 409.668 14.8452 410.9 16.573L414.63 21.8176C414.828 22.0956 415.14 22.2722 415.482 22.2916L421.904 22.719C424.02 22.8606 425.144 25.2866 423.878 26.9948L420.044 32.1626C419.842 32.439 419.774 32.787 419.858 33.1224L421.438 39.3644C421.958 41.4238 419.994 43.2432 417.982 42.5626L411.882 40.5124C411.556 40.4032 411.2 40.446 410.914 40.628L405.47 44.0586C403.674 45.1888 401.336 43.884 401.358 41.7652L401.422 35.3268C401.424 34.9864 401.276 34.6588 401.014 34.438L396.07 30.3198C394.438 28.9632 394.956 26.3354 396.98 25.6988L403.12 23.7694C403.448 23.6646 403.71 23.425 403.836 23.1082L406.224 17.132Z" fill="#FFCF7B"/>
<path d="M612.088 282.156C555.7 281.222 495.551 281.596 439.245 282.156C426.652 282.156 406.637 282.156 393.811 282.156C385.905 282.156 377.889 279.65 372.965 273.464C344.567 237.788 389.131 194.83 429.954 224.114C407.821 171.28 459.588 125.332 510.555 146.904C544.194 160.226 564.138 197.47 563.364 232.604C617.166 199.246 648.586 282.156 612.084 282.156" fill="#44C67F"/>
<path d="M704.806 272.706C704.806 255.912 704.146 243.284 700.736 224.834C695.746 197.854 689.118 183.059 689.118 183.059" stroke="#44C67F" stroke-width="16" stroke-linecap="round"/>
<path d="M752.322 112.168C740.556 130.658 705.026 150.225 684.762 137.331C664.5 124.436 667.176 83.963 678.942 65.4728C690.708 46.9824 716.674 42.446 736.938 55.3406C757.2 68.235 764.088 93.6774 752.322 112.168Z" fill="#FFCF7B"/>
<path d="M610.647 172.809C622.414 154.319 657.944 134.752 678.208 147.647C698.47 160.541 695.794 201.014 684.028 219.504C672.262 237.996 646.296 242.532 626.034 229.636C605.769 216.742 598.881 191.3 610.647 172.809Z" fill="#FFCF7B"/>
<path d="M711.8 213.324C693.31 201.558 673.744 166.028 686.638 145.765C699.532 125.501 740.006 128.178 758.496 139.944C776.986 151.71 781.522 177.676 768.628 197.939C755.734 218.202 730.292 225.09 711.8 213.324Z" fill="#FFCF7B"/>
<path d="M651.168 71.655C669.658 83.4212 689.226 118.951 676.332 139.214C663.436 159.478 622.964 156.801 604.473 145.035C585.982 133.269 581.446 107.304 594.341 87.0402C607.235 66.777 632.678 59.8888 651.168 71.655Z" fill="#FFCF7B"/>
<path d="M662.985 171.567C679.043 181.785 700.345 177.051 710.564 160.993C720.782 144.935 716.048 123.633 699.99 113.414C683.932 103.196 662.63 107.93 652.411 123.988C642.193 140.046 646.927 161.348 662.985 171.567Z" fill="#FF5310"/>
</svg>
