<svg width="14" height="14" viewBox="0 0 14 14" fill="none" xmlns="http://www.w3.org/2000/svg">
<g clip-path="url(#clip0_3356_426)">
<path d="M3.5 12.8333V2.33332C3.5 2.0239 3.62292 1.72716 3.84171 1.50837C4.0605 1.28957 4.35725 1.16666 4.66667 1.16666H9.33333C9.64275 1.16666 9.9395 1.28957 10.1583 1.50837C10.3771 1.72716 10.5 2.0239 10.5 2.33332V12.8333H3.5Z" stroke="#141414" stroke-linecap="round" stroke-linejoin="round"/>
<path d="M3.50008 7H2.33341C2.024 7 1.72725 7.12292 1.50846 7.34171C1.28966 7.5605 1.16675 7.85725 1.16675 8.16667V11.6667C1.16675 11.9761 1.28966 12.2728 1.50846 12.4916C1.72725 12.7104 2.024 12.8333 2.33341 12.8333H3.50008" stroke="#141414" stroke-linecap="round" stroke-linejoin="round"/>
<path d="M10.5 5.25H11.6667C11.9761 5.25 12.2728 5.37292 12.4916 5.59171C12.7104 5.8105 12.8333 6.10725 12.8333 6.41667V11.6667C12.8333 11.9761 12.7104 12.2728 12.4916 12.4916C12.2728 12.7104 11.9761 12.8333 11.6667 12.8333H10.5" stroke="#141414" stroke-linecap="round" stroke-linejoin="round"/>
<path d="M5.83325 3.5H8.16659" stroke="#141414" stroke-linecap="round" stroke-linejoin="round"/>
<path d="M5.83325 5.83334H8.16659" stroke="#141414" stroke-linecap="round" stroke-linejoin="round"/>
<path d="M5.83325 8.16666H8.16659" stroke="#141414" stroke-linecap="round" stroke-linejoin="round"/>
<path d="M5.83325 10.5H8.16659" stroke="#141414" stroke-linecap="round" stroke-linejoin="round"/>
</g>
<defs>
<clipPath id="clip0_3356_426">
<rect width="14" height="14" fill="white"/>
</clipPath>
</defs>
</svg>
