<svg width="44" height="14" viewBox="0 0 44 14" fill="none" xmlns="http://www.w3.org/2000/svg">
<g clip-path="url(#clip0_3372_540)">
<rect y="1.29611" width="12.7039" height="12.7039" rx="2.18561" fill="#A8A8A8"/>
<rect y="1.29611" width="12.7039" height="12.7039" fill="#BEF6D3"/>
<path d="M1.17989 10.537C0.569665 9.49599 1.06491 8.157 2.20564 7.76364L4.44357 6.99194C5.97149 6.46507 7.09968 8.43949 5.87002 9.48832C5.29808 9.97614 5.18888 10.818 5.61742 11.4356L7.99911 14.868C8.67774 15.8461 7.45607 17.017 6.50767 16.2975C6.13394 16.014 5.61715 16.014 5.24342 16.2975L4.86085 16.5878C3.80533 17.3885 2.41553 16.1547 3.08555 15.0117C3.30708 14.6338 3.30708 14.1657 3.08555 13.7878L1.17989 10.537Z" fill="url(#paint0_linear_3372_540)"/>
<circle cx="3.96983" cy="8.44206" r="0.158799" fill="#BEF6D3"/>
</g>
<path d="M24.149 7.75708V11.1682C23.2913 11.7866 22.2939 12.0958 21.1568 12.0958C20.4586 12.0958 19.8263 11.9881 19.2598 11.7726C18.6972 11.5532 18.2165 11.25 17.8175 10.863C17.4186 10.472 17.1114 10.0072 16.8959 9.46862C16.6805 8.93002 16.5728 8.33757 16.5728 7.69125C16.5728 7.04094 16.6765 6.44649 16.8839 5.90789C17.0914 5.3653 17.3886 4.90051 17.7756 4.51352C18.1626 4.12254 18.6294 3.82132 19.176 3.60987C19.7226 3.39444 20.337 3.28672 21.0192 3.28672C21.3663 3.28672 21.6874 3.31464 21.9827 3.3705C22.2819 3.42236 22.5592 3.49617 22.8145 3.59192C23.0698 3.68767 23.3052 3.80337 23.5207 3.93902C23.7361 4.07466 23.9336 4.22627 24.1131 4.39383L23.7122 5.03417C23.6483 5.13391 23.5666 5.19575 23.4668 5.21968C23.3671 5.24362 23.2594 5.21968 23.1437 5.14787C23.028 5.08005 22.9043 5.00823 22.7726 4.93243C22.645 4.85663 22.4973 4.78681 22.3298 4.72298C22.1622 4.65515 21.9687 4.60129 21.7493 4.5614C21.5299 4.51751 21.2705 4.49557 20.9713 4.49557C20.5165 4.49557 20.1056 4.57137 19.7385 4.72298C19.3755 4.87059 19.0643 5.08404 18.8049 5.36331C18.5456 5.63859 18.3461 5.97372 18.2065 6.36869C18.0669 6.76366 17.9971 7.20452 17.9971 7.69125C17.9971 8.20591 18.0709 8.66671 18.2185 9.07365C18.3661 9.4766 18.5755 9.81971 18.8468 10.103C19.1181 10.3822 19.4453 10.5957 19.8283 10.7433C20.2153 10.8909 20.6462 10.9647 21.1209 10.9647C21.476 10.9647 21.7912 10.9268 22.0665 10.851C22.3457 10.7752 22.619 10.6695 22.8863 10.5338V8.8223H21.6835C21.5917 8.8223 21.5199 8.79837 21.468 8.75049C21.4161 8.69863 21.3902 8.6328 21.3902 8.55301V7.75708H24.149ZM26.2044 7.02698C26.3959 6.63999 26.6273 6.33678 26.8986 6.11735C27.1699 5.89393 27.495 5.78222 27.8741 5.78222C28.0057 5.78222 28.1294 5.79818 28.2451 5.83009C28.3608 5.85802 28.4645 5.90191 28.5563 5.96175L28.4665 6.93123C28.4506 6.99905 28.4246 7.04693 28.3887 7.07485C28.3568 7.09879 28.3129 7.11076 28.2571 7.11076C28.1972 7.11076 28.1114 7.10079 27.9997 7.08084C27.888 7.0569 27.7703 7.04493 27.6466 7.04493C27.4671 7.04493 27.3075 7.07086 27.1679 7.12273C27.0322 7.17459 26.9086 7.2504 26.7969 7.35014C26.6891 7.44988 26.5934 7.57156 26.5096 7.71519C26.4258 7.85881 26.348 8.02239 26.2762 8.20591V12H24.9896V5.89592H25.7376C25.8733 5.89592 25.967 5.92186 26.0189 5.97372C26.0707 6.0216 26.1067 6.10737 26.1266 6.23105L26.2044 7.02698ZM32.097 9.33098C31.6382 9.34694 31.2512 9.38484 30.936 9.44468C30.6208 9.50054 30.3655 9.57435 30.17 9.66611C29.9745 9.75388 29.8329 9.8596 29.7451 9.98328C29.6613 10.107 29.6194 10.2426 29.6194 10.3902C29.6194 10.5338 29.6414 10.6575 29.6853 10.7613C29.7332 10.861 29.797 10.9448 29.8768 11.0126C29.9606 11.0764 30.0563 11.1243 30.164 11.1562C30.2757 11.1842 30.3974 11.1981 30.5291 11.1981C30.8642 11.1981 31.1515 11.1363 31.3908 11.0126C31.6342 10.8849 31.8696 10.7014 32.097 10.462V9.33098ZM28.6859 6.74571C29.3761 6.10338 30.1979 5.78222 31.1515 5.78222C31.5025 5.78222 31.8137 5.84007 32.085 5.95577C32.3603 6.06748 32.5897 6.22706 32.7732 6.43452C32.9607 6.64198 33.1024 6.88934 33.1981 7.17659C33.2979 7.45985 33.3477 7.77503 33.3477 8.12213V12H32.7732C32.6496 12 32.5558 11.9821 32.492 11.9462C32.4281 11.9063 32.3743 11.8285 32.3304 11.7128L32.2047 11.2161C32.0491 11.3557 31.8955 11.4814 31.7439 11.5931C31.5923 11.7008 31.4347 11.7926 31.2711 11.8684C31.1116 11.9442 30.938 12 30.7505 12.0359C30.567 12.0758 30.3635 12.0958 30.1401 12.0958C29.8927 12.0958 29.6613 12.0619 29.4459 11.994C29.2344 11.9262 29.0509 11.8245 28.8953 11.6888C28.7397 11.5492 28.6161 11.3777 28.5243 11.1742C28.4365 10.9707 28.3926 10.7313 28.3926 10.4561C28.3926 10.2207 28.4545 9.99126 28.5782 9.76784C28.7058 9.54442 28.9133 9.34494 29.2005 9.1694C29.4918 8.98987 29.8728 8.84225 30.3436 8.72655C30.8183 8.61085 31.4028 8.54503 32.097 8.52907V8.12213C32.097 7.68327 32.0032 7.35612 31.8157 7.14068C31.6282 6.92524 31.3529 6.81752 30.9899 6.81752C30.7425 6.81752 30.5351 6.84944 30.3675 6.91327C30.1999 6.97312 30.0543 7.03895 29.9306 7.11076C29.807 7.18257 29.6972 7.2504 29.6015 7.31423C29.5057 7.37407 29.404 7.404 29.2963 7.404C29.2085 7.404 29.1327 7.38205 29.0689 7.33817C29.009 7.29029 28.9592 7.23244 28.9193 7.16462L28.6859 6.74571ZM42.9051 5.89592L40.9482 12H39.9249C39.8052 12 39.7214 11.9222 39.6736 11.7666L38.4587 7.96653C38.4268 7.85881 38.3969 7.75109 38.3689 7.64337C38.345 7.53565 38.3231 7.42993 38.3031 7.3262C38.2592 7.54164 38.2054 7.75708 38.1415 7.97252L36.9087 11.7666C36.8649 11.9222 36.7711 12 36.6275 12H35.652L33.6951 5.89592H34.7125C34.8122 5.89592 34.894 5.92186 34.9578 5.97372C35.0257 6.0216 35.0695 6.07945 35.0895 6.14727L36.1068 9.70201C36.1467 9.86559 36.1806 10.0252 36.2086 10.1808C36.2405 10.3324 36.2684 10.484 36.2924 10.6356C36.3322 10.484 36.3741 10.3324 36.418 10.1808C36.4619 10.0252 36.5078 9.86559 36.5557 9.70201L37.6987 6.12932C37.7186 6.0575 37.7585 5.99965 37.8184 5.95577C37.8822 5.90789 37.958 5.88395 38.0458 5.88395H38.6083C38.7001 5.88395 38.7779 5.90789 38.8417 5.95577C38.9056 5.99965 38.9474 6.0575 38.9674 6.12932L40.0805 9.70201C40.1284 9.86559 40.1723 10.0252 40.2121 10.1808C40.256 10.3364 40.2959 10.492 40.3318 10.6476C40.3598 10.4959 40.3897 10.3423 40.4216 10.1868C40.4535 10.0312 40.4914 9.86958 40.5353 9.70201L41.5706 6.14727C41.5945 6.07546 41.6384 6.01561 41.7023 5.96774C41.7661 5.91986 41.8439 5.89592 41.9357 5.89592H42.9051Z" fill="#A8A8A8"/>
<defs>
<linearGradient id="paint0_linear_3372_540" x1="5.87554" y1="4.47211" x2="5.87554" y2="20.2753" gradientUnits="userSpaceOnUse">
<stop stop-color="white"/>
<stop offset="1" stop-color="white"/>
</linearGradient>
<clipPath id="clip0_3372_540">
<rect y="1.29611" width="12.7039" height="12.7039" rx="2.18561" fill="white"/>
</clipPath>
</defs>
</svg>
