<svg width="22" height="22" viewBox="0 0 22 22" fill="none" xmlns="http://www.w3.org/2000/svg">
<path d="M11 11C9.53337 11 8.27782 10.4778 7.23337 9.43333C6.18893 8.38889 5.66671 7.13333 5.66671 5.66667C5.66671 4.2 6.18893 2.94444 7.23337 1.9C8.27782 0.855555 9.53337 0.333332 11 0.333332C12.4667 0.333332 13.7223 0.855555 14.7667 1.9C15.8112 2.94444 16.3334 4.2 16.3334 5.66667C16.3334 7.13333 15.8112 8.38889 14.7667 9.43333C13.7223 10.4778 12.4667 11 11 11ZM0.333374 21.6667V17.9333C0.333374 17.1778 0.528041 16.4836 0.917374 15.8507C1.30671 15.2178 1.82315 14.7342 2.46671 14.4C3.84449 13.7111 5.24449 13.1947 6.66671 12.8507C8.08893 12.5067 9.53337 12.3342 11 12.3333C12.4667 12.3324 13.9112 12.5049 15.3334 12.8507C16.7556 13.1964 18.1556 13.7129 19.5334 14.4C20.1778 14.7333 20.6947 15.2169 21.084 15.8507C21.4734 16.4844 21.6676 17.1787 21.6667 17.9333V21.6667H0.333374Z" fill="#5D9271"/>
</svg>
