<svg width="40" height="13" viewBox="0 0 40 13" fill="none" xmlns="http://www.w3.org/2000/svg">
<g opacity="0.5">
<path d="M7.29629 6.84358L10.1219 4.02493C10.3343 3.81494 10.4533 3.52561 10.4533 3.22694L10.4579 0.949627C10.4579 0.832961 10.4136 0.720962 10.3319 0.636963L4.91164 6.04792C4.47064 6.48425 4.46831 7.19591 4.90464 7.63457C4.90697 7.63691 4.90931 7.63924 4.91164 7.64157L8.73361 11.4519C9.1746 11.8905 9.8886 11.8882 10.3249 11.4472C10.7636 11.0062 10.7613 10.2922 10.3203 9.85589L7.29629 6.84358Z" fill="#008B62"/>
<path d="M10.0169 0.517959H1.50031C0.811983 0.517959 0.30332 1.03829 0.30332 1.74761V10.6329C0.293987 11.2559 0.795649 11.7692 1.41864 11.7785C1.42798 11.7785 1.43964 11.7785 1.44664 11.7785C2.06731 11.7902 2.58063 11.2932 2.5923 10.6725C2.5923 10.6585 2.5923 10.6445 2.5923 10.6352V2.70894H8.25759L10.3319 0.643958C10.2479 0.559958 10.1359 0.513292 10.0169 0.517959Z" fill="#5BBE91"/>
<path d="M14.7745 3.44861V4.98626H14.0956V0.921631H15.9225C16.8909 0.921631 17.3762 1.37896 17.3762 2.07895C17.3762 2.67395 16.9469 3.09161 16.3192 3.20828C16.5082 3.23628 16.6529 3.28061 16.7765 3.36461C17.0052 3.51394 17.1265 3.78694 17.2619 4.25594L17.4672 4.98626H16.7439L16.5549 4.2676C16.3822 3.59328 16.2142 3.44861 15.5025 3.44861H14.7745ZM14.7745 1.51196V2.95395H15.7265C16.3495 2.95395 16.7019 2.67628 16.7019 2.21429C16.7019 1.76862 16.4242 1.51196 15.7545 1.51196H14.7745Z" fill="#231F20"/>
<path d="M19.4622 5.04228C18.3865 5.04228 17.8429 4.35628 17.8429 3.44396C17.8429 2.55963 18.4449 1.80597 19.4412 1.80597C20.4538 1.80597 20.9345 2.5293 20.9345 3.37629V3.60962H18.4985C18.5475 4.14862 18.8719 4.47761 19.4505 4.47761C19.8682 4.47761 20.1085 4.30495 20.2905 3.98295L20.8528 4.29561C20.5938 4.72494 20.1598 5.04228 19.4622 5.04228ZM18.5055 3.18729H20.2718C20.2438 2.70896 19.9942 2.36363 19.4365 2.36363C18.9069 2.36363 18.5825 2.67396 18.5055 3.18729Z" fill="#231F20"/>
<path d="M22.9085 1.82932C23.4218 1.82932 23.7672 2.05798 23.9608 2.50364V1.86665H24.6282V6.18795H23.9538V4.33296C23.7415 4.77862 23.3588 5.02362 22.8502 5.02362C22.1105 5.02362 21.5085 4.49396 21.5085 3.44164C21.5108 2.36831 22.1968 1.82932 22.9085 1.82932ZM24.0122 3.42064C24.0122 2.81397 23.7345 2.36831 23.0998 2.36831C22.5212 2.36831 22.1968 2.79064 22.1968 3.4323C22.1968 4.07863 22.5025 4.46829 23.0998 4.46829C23.7275 4.46829 24.0122 4.02263 24.0122 3.42064Z" fill="#231F20"/>
<path d="M28.3381 4.98628H27.6638V4.24662C27.4515 4.78095 27.0688 5.04928 26.5881 5.04928C25.8298 5.04928 25.4681 4.54295 25.4681 3.77996V1.86664H26.1425V3.59329C26.1425 4.13229 26.3268 4.47762 26.8658 4.47762C27.3511 4.47762 27.6568 4.06462 27.6568 3.39263V1.86664H28.3358L28.3381 4.98628Z" fill="#231F20"/>
<path d="M30.6784 5.04228C29.6027 5.04228 29.0591 4.35628 29.0591 3.44396C29.0591 2.55963 29.6611 1.80597 30.6574 1.80597C31.6701 1.80597 32.1507 2.5293 32.1507 3.37629V3.60962H29.7171C29.7661 4.14862 30.0904 4.47761 30.6691 4.47761C31.0867 4.47761 31.3271 4.30495 31.5091 3.98295L32.0714 4.29561C31.8077 4.72494 31.3737 5.04228 30.6784 5.04228ZM29.7194 3.18729H31.4857C31.4577 2.70896 31.2081 2.36363 30.6504 2.36363C30.1207 2.36363 29.7987 2.67396 29.7194 3.18729Z" fill="#231F20"/>
<path d="M33.1004 3.96663C33.357 4.30729 33.6744 4.48462 34.1364 4.48462C34.5774 4.48462 34.7594 4.27229 34.7594 4.05063C34.7594 3.72863 34.281 3.70063 33.707 3.60496C33.14 3.5163 32.727 3.3273 32.727 2.76964C32.727 2.22364 33.1844 1.79431 33.9637 1.79431C34.5984 1.79431 35.044 1.99031 35.4174 2.43364L34.8994 2.87464C34.659 2.52931 34.3604 2.36131 33.924 2.36131C33.49 2.36131 33.3174 2.55731 33.3174 2.7743C33.3174 3.05897 33.679 3.11497 34.2087 3.19197C34.8154 3.28063 35.3614 3.4253 35.3614 4.05063C35.3614 4.62462 34.8994 5.05395 34.12 5.05395C33.413 5.05395 32.9184 4.81362 32.6104 4.43096L33.1004 3.96663Z" fill="#231F20"/>
<path d="M38.005 4.91859C37.844 4.99559 37.6713 5.03993 37.438 5.03993C36.7637 5.03993 36.4907 4.68293 36.4907 3.99227V2.42195H35.779V1.86662H36.4977V1.07096L37.1277 0.692963V1.86662H38.0073V2.42428H37.1277V3.9176C37.1277 4.31893 37.2887 4.4636 37.5943 4.4636C37.7623 4.4636 37.8627 4.4356 38.0073 4.37493L38.005 4.91859Z" fill="#231F20"/>
<path d="M14.7512 11.9045H14.0932V7.8399H14.9006L16.6669 10.8032L16.8395 11.1765L16.8162 10.7752V7.8399H17.4742V11.9045H16.7159L14.8889 8.82456L14.7116 8.4909L14.7512 8.8759V11.9045Z" fill="#231F20"/>
<path d="M19.8355 11.9605C18.7598 11.9605 18.2162 11.2746 18.2162 10.3622C18.2162 9.4779 18.8182 8.72424 19.8145 8.72424C20.8272 8.72424 21.3078 9.44757 21.3078 10.2946V10.5279H18.8718C18.9208 11.0669 19.2452 11.3959 19.8238 11.3959C20.2415 11.3959 20.4818 11.2232 20.6638 10.9012L21.2262 11.2139C20.9672 11.6432 20.5308 11.9605 19.8355 11.9605ZM18.8788 10.1056H20.6452C20.6172 9.62724 20.3675 9.28191 19.8098 9.28191C19.2778 9.28191 18.9558 9.59457 18.8788 10.1056Z" fill="#231F20"/>
<path d="M23.9001 11.8392C23.7391 11.9162 23.5665 11.9629 23.3331 11.9629C22.6588 11.9629 22.3858 11.6059 22.3858 10.9152V9.34491H21.6742V8.78724H22.3928V7.99158L23.0228 7.61359V8.78958H23.9025V9.34724H23.0228V10.8406C23.0228 11.2419 23.1838 11.3866 23.4895 11.3866C23.6575 11.3866 23.7578 11.3586 23.9025 11.2979L23.9001 11.8392Z" fill="#231F20"/>
<path d="M26.0234 11.9045H25.1881L24.3971 8.78723H25.0925L25.6268 11.0809L25.6944 11.4869L25.7831 11.0809L26.4621 8.78723H27.0081L27.6708 11.0762L27.7478 11.4985L27.8201 11.0809L28.4058 8.78723H29.0918L28.2238 11.9045H27.4164L26.8098 9.73222L26.7328 9.39856L26.6604 9.73922L26.0234 11.9045Z" fill="#231F20"/>
<path d="M29.4908 10.3459C29.4908 9.42656 30.0857 8.72656 31.0891 8.72656C32.1087 8.72656 32.6827 9.43822 32.6827 10.3459C32.6827 11.2489 32.0877 11.9605 31.0891 11.9605C30.0601 11.9605 29.4908 11.2769 29.4908 10.3459ZM31.9921 10.3459C31.9921 9.71589 31.7144 9.28889 31.0891 9.28889C30.4754 9.28889 30.1814 9.73455 30.1814 10.3459C30.1814 10.9642 30.4497 11.3865 31.0891 11.3865C31.7191 11.3865 31.9921 10.9595 31.9921 10.3459Z" fill="#231F20"/>
<path d="M35.4897 8.86425L35.3007 9.48258C35.1514 9.38691 34.9834 9.34258 34.7711 9.34258C34.3814 9.34258 34.0851 9.66458 34.0851 10.3226V11.9046H33.4107V8.78725H34.0851V9.53858C34.2251 8.99258 34.4911 8.74292 34.9484 8.74292C35.1771 8.74292 35.3497 8.78725 35.4897 8.86425Z" fill="#231F20"/>
<path d="M36.7147 10.5466L38.173 8.78724H38.957L37.7764 10.1732L39.0293 11.9045H38.2267L37.2234 10.4509L36.71 11.0412V11.9045H36.0357V7.47125H36.71V10.5466H36.7147Z" fill="#231F20"/>
</g>
</svg>
