<svg width="191" height="470" viewBox="0 0 191 470" fill="none" xmlns="http://www.w3.org/2000/svg">
<path fill-rule="evenodd" clip-rule="evenodd" d="M12.3924 72.5144C5.96703 72.5816 0.703792 67.4274 0.636584 61.002L0.122265 11.8314C0.0550566 5.40607 5.20934 0.142826 11.6347 0.0756179L83.0632 -0.671515C83.6374 -0.727238 84.2189 -0.758713 84.8066 -0.76486L182.928 -1.7912C193.961 -1.9066 202.997 6.94322 203.113 17.9754L206.842 374.462C206.957 385.494 198.107 394.531 187.075 394.647L88.9533 395.673C88.4611 395.678 88.0544 396.073 88.0596 396.566L88.6098 449.172C88.7252 460.204 79.8754 469.241 68.8432 469.356L28.4531 469.779C17.4209 469.894 8.38401 461.044 8.26861 450.012L5.7062 205.037C5.59081 194.005 14.4406 184.968 25.4728 184.853L65.863 184.43C66.3552 184.425 66.7618 184.03 66.7567 183.538L65.7939 91.4945C65.681 80.7048 56.8427 72.0495 46.053 72.1623L12.3924 72.5144Z" fill="#F7F7F7"/>
</svg>
