<svg width="134" height="693" viewBox="0 0 134 693" fill="none" xmlns="http://www.w3.org/2000/svg">
<path fill-rule="evenodd" clip-rule="evenodd" d="M3.93779 691.907C4.05318 702.939 13.0901 711.789 24.1223 711.673L122.244 710.647C133.276 710.532 142.126 701.495 142.011 690.462L138.643 368.515C138.546 359.276 146.18 351.575 151.082 343.744C153.039 340.617 154.154 336.912 154.113 332.95L151.55 87.9755C151.488 82.0622 155.704 72.8258 161.618 72.764L181.198 72.5592C187.623 72.492 192.777 67.2287 192.71 60.8034L192.196 11.6328C192.128 5.20748 186.865 0.0531397 180.44 0.120348L65.6353 1.32119C59.2099 1.3884 54.0556 6.65164 54.1228 13.077L54.6372 62.2476C54.7044 68.673 59.9676 73.8272 66.3929 73.76C70.3842 73.7183 72.9732 79.462 71.9172 83.3112C71.4368 85.0627 71.189 86.9096 71.2089 88.816L73.3671 295.138C73.4799 305.928 64.8246 314.766 54.0349 314.879L19.9756 315.235C8.9434 315.351 0.093581 324.388 0.208976 335.42L3.93779 691.907Z" fill="#F7F7F7"/>
</svg>
