<svg width="14" height="14" viewBox="0 0 14 14" fill="none" xmlns="http://www.w3.org/2000/svg">
<path d="M3.34262 1.20312C2.77606 1.20312 2.26419 1.53894 2.03888 2.05847L0.438631 5.73663C0.203475 6.27695 0.330418 6.91583 0.754793 7.32599L6.01142 12.4074C6.28813 12.6754 6.6435 12.8088 7.00006 12.8088C7.35553 12.8088 7.7109 12.6743 7.98871 12.4074L13.2453 7.32599C13.6697 6.91583 13.7966 6.27695 13.5615 5.73663L11.9623 2.05847C11.7359 1.53894 11.2241 1.20312 10.6575 1.20312H3.34262ZM3.34262 1.85938H10.6586C10.9637 1.85938 11.2393 2.03995 11.3607 2.31995L12.9599 5.99811C13.0857 6.28905 13.0178 6.63252 12.7892 6.85345L7.53262 11.9349C7.23403 12.2237 6.76716 12.2237 6.46857 11.9349L1.21088 6.85345C0.982284 6.63252 0.914386 6.28905 1.04126 5.99811L2.64044 2.31995C2.76185 2.03995 3.03747 1.85938 3.34262 1.85938ZM4.26569 3.39062C4.08413 3.39062 3.93756 3.53719 3.93756 3.71875C3.93756 3.90031 4.08413 4.04688 4.26569 4.04688H6.67194V6.88742C4.93725 6.8568 3.87736 6.58544 3.56564 6.39951C3.79424 6.26607 4.45933 6.05275 5.71277 5.95432C5.89324 5.9401 6.02884 5.78273 6.01462 5.60226C6.0004 5.4218 5.84282 5.2862 5.66235 5.30042C3.79204 5.44698 2.84381 5.81656 2.84381 6.39844C2.84381 7.36969 5.576 7.5218 6.67194 7.54367V10.2812C6.67194 10.4628 6.8185 10.6094 7.00006 10.6094C7.18162 10.6094 7.32819 10.4628 7.32819 10.2812V7.54367C8.42412 7.5218 11.1563 7.36969 11.1563 6.39844C11.1563 5.81656 10.2081 5.44698 8.33777 5.30042C8.15621 5.2851 7.99863 5.4218 7.98551 5.60226C7.97129 5.78273 8.10689 5.94119 8.28735 5.95432C9.54079 6.05275 10.2059 6.26497 10.4345 6.39951C10.1228 6.58544 9.06397 6.8568 7.32819 6.88742V4.04688H9.73444C9.916 4.04688 10.0626 3.90031 10.0626 3.71875C10.0626 3.53719 9.916 3.39062 9.73444 3.39062H4.26569Z" fill="#0F0F0F"/>
</svg>
