<svg width="24" height="24" viewBox="0 0 24 24" fill="none" xmlns="http://www.w3.org/2000/svg">
<path d="M18.84 12.25L20.56 10.54H20.54C21.4606 9.58604 21.9651 8.30573 21.9426 6.98018C21.9201 5.65462 21.3725 4.39217 20.42 3.47C19.4869 2.57019 18.2412 2.06739 16.945 2.06739C15.6488 2.06739 14.4031 2.57019 13.47 3.47L11.75 5.18" stroke="#C7C7C7" stroke-width="2" stroke-linecap="round" stroke-linejoin="round"/>
<path d="M5.16994 11.75L3.45994 13.46C2.53931 14.414 2.03486 15.6943 2.05736 17.0198C2.07986 18.3454 2.62746 19.6078 3.57994 20.53C4.51299 21.4298 5.7587 21.9326 7.05494 21.9326C8.35118 21.9326 9.59689 21.4298 10.5299 20.53L12.2399 18.82" stroke="#C7C7C7" stroke-width="2" stroke-linecap="round" stroke-linejoin="round"/>
<path d="M8 2V5" stroke="#C7C7C7" stroke-width="2" stroke-linecap="round" stroke-linejoin="round"/>
<path d="M2 8H5" stroke="#C7C7C7" stroke-width="2" stroke-linecap="round" stroke-linejoin="round"/>
<path d="M16 19V22" stroke="#C7C7C7" stroke-width="2" stroke-linecap="round" stroke-linejoin="round"/>
<path d="M19 16H22" stroke="#C7C7C7" stroke-width="2" stroke-linecap="round" stroke-linejoin="round"/>
</svg>
